HIERARCHY
ROOT Hip
{
	OFFSET 0.000000 0.000000 0.000000 
	CHANNELS 6 Xposition Yposition Zposition Xrotation Yrotation Zrotation
	JOINT LowerSpine
	{
		OFFSET 0.000000 8.345300 -5.129200 
		CHANNELS 3 Xrotation Yrotation Zrotation
		JOINT MiddleSpine
		{
			OFFSET 10.856900 0.000000 0.000000 
			CHANNELS 3 Xrotation Yrotation Zrotation
			JOINT Chest
			{
				OFFSET 15.298400 0.000000 0.000000 
				CHANNELS 3 Xrotation Yrotation Zrotation
				JOINT Neck
				{
					OFFSET 25.661800 -0.598600 0.000000 
					CHANNELS 3 Xrotation Yrotation Zrotation
					JOINT Head
					{
						OFFSET 8.882900 0.000000 0.000000 
						CHANNELS 3 Xrotation Yrotation Zrotation
						End Site
						{
							OFFSET 19.739901 0.000000 0.000000 
						}
					}
				}
				JOINT RClavicle
				{
					OFFSET 23.687799 0.000000 3.158400 
					CHANNELS 3 Xrotation Yrotation Zrotation
					JOINT RShoulder
					{
						OFFSET -15.594500 -3.948000 0.987000 
						CHANNELS 3 Xrotation Yrotation Zrotation
						JOINT RForearm
						{
							OFFSET -31.337000 0.000000 0.197400 
							CHANNELS 3 Xrotation Yrotation Zrotation
							JOINT RHand
							{
								OFFSET -26.402100 0.000000 0.000000 
								CHANNELS 3 Xrotation Yrotation Zrotation
								End Site
								{
									OFFSET -15.791900 -0.987000 0.000000 
								}
							}
						}
					}
				}
				JOINT LClavicle
				{
					OFFSET 23.687799 0.000000 -3.158400 
					CHANNELS 3 Xrotation Yrotation Zrotation
					JOINT LShoulder
					{
						OFFSET -15.594500 -3.948000 -0.987000 
						CHANNELS 3 Xrotation Yrotation Zrotation
						JOINT LForearm
						{
							OFFSET -31.337000 0.000000 -0.197400 
							CHANNELS 3 Xrotation Yrotation Zrotation
							JOINT LHand
							{
								OFFSET -26.402100 0.000000 0.000000 
								CHANNELS 3 Xrotation Yrotation Zrotation
								End Site
								{
									OFFSET -15.791900 -0.987000 0.000000 
								}
							}
						}
					}
				}
			}
		}
	}
	JOINT RThigh
	{
		OFFSET -8.882900 0.448100 0.000000 
		CHANNELS 3 Xrotation Yrotation Zrotation
		JOINT RShin
		{
			OFFSET 43.131599 0.000000 -0.493500 
			CHANNELS 3 Xrotation Yrotation Zrotation
			JOINT RFoot
			{
				OFFSET 0.000000 -44.725601 -0.404700 
				CHANNELS 3 Xrotation Yrotation Zrotation
				JOINT RToe
				{
					OFFSET 0.000000 -3.933200 12.195300 
					CHANNELS 3 Xrotation Yrotation Zrotation
					End Site
					{
						OFFSET 6.772500 0.000000 0.000000 
					}
				}
			}
		}
	}
	JOINT LThigh
	{
		OFFSET 8.882900 0.448100 0.000000 
		CHANNELS 3 Xrotation Yrotation Zrotation
		JOINT LShin
		{
			OFFSET 43.131599 0.000000 0.493500 
			CHANNELS 3 Xrotation Yrotation Zrotation
			JOINT LFoot
			{
				OFFSET 0.000000 -44.725601 0.404700 
				CHANNELS 3 Xrotation Yrotation Zrotation
				JOINT LToe
				{
					OFFSET 0.000000 -3.933200 -12.195300 
					CHANNELS 3 Xrotation Yrotation Zrotation
					End Site
					{
						OFFSET 6.772500 0.000000 0.000000 
					}
				}
			}
		}
	}
}
MOTION
Frames: 7
Frame Time: 0.012949
0.479682 92.488472 -11.852948 -4.684754 0.225939 -0.437216 -89.999992 -90.000000 0.000000 -0.468662 -1.396477 -0.996977 -1.659026 -4.621289 -3.373007 0.000000 0.000000 0.000000 0.000000 0.000000 0.000000 89.996437 -0.308692 -85.853188 -40.261780 10.934960 57.689819 155.381302 76.022713 -154.983505 0.000000 0.000000 0.000000 -90.012573 0.589164 -82.078598 -20.361259 -42.337360 66.065247 -1.829058 -19.509520 -6.220937 0.000000 0.000000 0.000000 -90.335968 86.424187 9.123465 89.979668 2.269829 89.998093 -6.917127 -1.614832 -0.731817 179.999603 90.000000 0.000000 -141.181595 86.367218 46.656719 -89.807137 -20.939720 90.013863 7.279942 -0.039656 0.013272 184.335403 -90.000000 0.000000 
0.474963 92.470146 -11.894396 -4.637091 0.462051 -0.408357 -89.999992 -90.000000 0.000000 -0.440058 -1.457947 -0.989176 -1.567219 -4.828338 -3.346636 0.000000 0.000000 0.000000 0.000000 0.000000 0.000000 89.995193 -0.226228 -86.960823 -43.185169 9.938204 59.071449 159.193405 73.695847 -158.664200 0.000000 0.000000 0.000000 -90.014397 0.608847 -81.813057 -20.333960 -41.882210 65.771141 -1.914198 -20.242350 -6.249884 0.000000 0.000000 0.000000 -90.445961 86.380318 9.294264 89.981247 2.093283 89.998207 -6.913354 -1.915799 -0.856333 179.999298 90.000000 0.000000 -140.707596 86.381577 46.129379 -89.808144 -20.839479 90.013618 7.187707 -0.227861 0.098335 184.398300 -90.000000 0.000000 
0.444045 92.452621 -11.876842 -4.687535 0.685210 -0.490614 -89.999992 -90.000000 0.000000 -0.418013 -1.520381 -0.971018 -1.496244 -5.038452 -3.286161 0.000000 0.000000 0.000000 0.000000 0.000000 0.000000 89.995430 -0.153995 -87.931061 -45.724411 9.184299 60.097610 162.318298 71.075104 -161.643402 0.000000 0.000000 0.000000 -90.016273 0.628078 -81.553558 -20.368530 -41.330952 65.527428 -1.977978 -20.786819 -6.272236 0.000000 0.000000 0.000000 -90.231796 86.193787 9.284700 89.983093 1.889215 89.998360 -6.792836 -2.261327 -0.997999 179.997101 90.000000 0.000000 -138.571899 86.291077 43.965500 -89.806664 -20.989710 90.013992 7.360031 -0.506183 0.221898 184.285995 -90.000000 0.000000 
0.408226 92.437599 -11.894491 -4.689047 0.890542 -0.618297 -89.999992 -90.000000 0.000000 -0.410829 -1.582098 -0.949215 -1.474367 -5.245277 -3.214913 0.000000 0.000000 0.000000 0.000000 0.000000 0.000000 89.996536 -0.094289 -88.733101 -47.815289 9.175334 60.530231 164.776794 68.319138 -163.949905 0.000000 0.000000 0.000000 -90.017677 0.641831 -81.367897 -20.299351 -40.922249 65.399971 -2.006031 -21.025061 -6.282246 0.000000 0.000000 0.000000 -89.984894 85.974129 9.113763 89.983643 1.826619 89.998398 -6.623425 -2.327008 -1.019014 179.995697 90.000000 0.000000 -136.051498 86.169250 41.250969 -89.802818 -21.377090 90.014977 7.627253 -0.720552 0.318069 184.097305 -90.000000 0.000000 
0.398908 92.423271 -11.957039 -4.616714 1.177674 -0.720626 -89.999992 -90.000000 0.000000 -0.423142 -1.642046 -0.930709 -1.517932 -5.444877 -3.156809 0.000000 0.000000 0.000000 0.000000 0.000000 0.000000 89.997963 -0.048514 -89.348244 -49.666889 9.567856 60.719158 166.507904 65.846733 -165.544693 0.000000 0.000000 0.000000 -90.018013 0.644961 -81.325638 -20.122589 -40.654949 65.417641 -2.043037 -21.338169 -6.295617 0.000000 0.000000 0.000000 -89.936829 85.812080 9.061829 89.984467 1.734473 89.998466 -6.538041 -2.222874 -0.974599 179.997101 90.000000 0.000000 -134.083801 86.082947 39.011822 -89.799469 -21.713150 90.015869 7.751384 -0.919557 0.401927 184.037003 -90.000000 0.000000 
0.393390 92.403748 -12.002087 -4.567661 1.582274 -0.822304 -89.999992 -90.000000 0.000000 -0.456080 -1.699292 -0.920949 -1.631558 -5.633992 -3.130465 0.000000 0.000000 0.000000 0.000000 0.000000 0.000000 89.999237 -0.016556 -89.777847 -51.377251 10.055010 60.717609 167.730392 63.743111 -166.651001 0.000000 0.000000 0.000000 -90.016930 0.634583 -81.465782 -19.896879 -40.443859 65.598618 -2.108166 -21.885969 -6.319606 0.000000 0.000000 0.000000 -89.923576 85.638908 9.177595 89.987083 1.445038 89.998688 -6.510030 -2.318126 -1.019490 179.996506 90.000000 0.000000 -132.100403 85.979477 36.843430 -89.797737 -21.887449 90.016327 7.806426 -1.404065 0.606757 184.118896 -90.000000 0.000000 
0.384471 92.371117 -12.035734 -4.542097 1.909709 -0.903866 -89.999992 -90.000000 0.000000 -0.507497 -1.752113 -0.922659 -1.808355 -5.806865 -3.144868 0.000000 0.000000 0.000000 0.000000 0.000000 0.000000 90.000183 0.003676 -90.049858 -53.144421 10.736360 60.821209 168.618103 61.982830 -167.441101 0.000000 0.000000 0.000000 -90.014671 0.611643 -81.775429 -19.583269 -40.359612 66.027321 -2.162341 -22.338430 -6.339999 0.000000 0.000000 0.000000 -89.946609 85.485992 9.377627 89.990067 1.111124 89.998962 -6.483610 -2.548650 -1.118768 179.986298 90.000000 0.000000 -130.507004 85.900253 35.111111 -89.796440 -22.017670 90.016693 8.008631 -1.856072 0.815750 184.024902 -90.000000 0.000000 
